<svg viewBox="0 0 240 120" xmlns="http://www.w3.org/2000/svg">
  <defs>
    <linearGradient id="trackGradient" x1="0%" y1="0%" x2="100%" y2="0%">
      <stop offset="0%" stop-color="#111827" />
      <stop offset="100%" stop-color="#4f46e5" />
    </linearGradient>
  </defs>
  <rect width="240" height="120" rx="18" fill="#ffffff" />
  <path d="M18 88 C40 40, 70 40, 84 76 S118 120, 140 88 S190 30, 222 70" fill="none" stroke="black" stroke-width="8" stroke-linecap="round" />
  <path d="M32 85 C56 55, 82 55, 100 85 S138 115, 158 85 S198 50, 218 75" fill="none" stroke="#1f2937" stroke-width="4" stroke-linecap="round" />
  <circle cx="74" cy="72" r="8" fill="#111827" />
  <circle cx="128" cy="94" r="8" fill="#111827" />
  <path d="M44 30 H116 A8 8 0 0 1 124 38 V48 A8 8 0 0 1 116 56 H48 A8 8 0 0 1 40 48 V38 A8 8 0 0 1 48 30 Z" fill="#111827" />
  <text x="128" y="80" font-family="Arial, Helvetica, sans-serif" font-size="32" fill="#111827" font-weight="700">Thrill</text>
  <text x="128" y="106" font-family="Arial, Helvetica, sans-serif" font-size="24" fill="#4f46e5" font-weight="600">of Life</text>
</svg>
